<svg xmlns="http://www.w3.org/2000/svg"><symbol id="space-bubbles" viewBox="0 0 256 256"><path d="M97.5 149.8H83.7l-18.4 21.8 2.9 4.2 35.4-18.6-6.1-7.4zM72 134.7h114.7v10.9H72z"/><path d="M128.1.4L17.6 64.2v127.7l110.5 63.8 110.5-63.8V64.2zm67.1 172.5l-4.8 6.9a2 2 0 0 1-2.7.6l-10.1-5.2H78.5l-10.1 5.2a2.1 2.1 0 0 1-2.7-.6l-4.8-6.9a2 2 0 0 1 .2-2.5l17.4-20.6h-8.6a1.9 1.9 0 0 1-2.1-2.1v-15.1a1.9 1.9 0 0 1 2.1-2H82a61.9 61.9 0 0 1-2.3-16 49.8 49.8 0 0 1 49.7-49.5c27 0 49.5 22.5 49.5 49.5a54.3 54.3 0 0 1-2.3 16h12.1a1.9 1.9 0 0 1 2.1 2v15.1a1.9 1.9 0 0 1-2.1 2.1H178l17.2 20.6a2.1 2.1 0 0 1 0 2.5z"/><path d="M86.6 171h28.6l-8.6-10.5-20 10.5zm85.6-40.4a53.5 53.5 0 0 0 2.5-16 45.4 45.4 0 0 0-45.3-45.3c-24.9 0-45.5 20.4-45.5 45.3 0 5.5.4 11.1 2.5 16zM103 149.8l17.6 21.2h15.1l17.6-21.2H103zm55.8 0l-6.3 7.4 35.6 18.6 2.9-4-18.4-22h-13.8zM141.1 171h28.6l-20-10.5-8.6 10.5z"/></symbol><symbol id="super-domes" viewBox="0 0 256 256"><path d="M140.1 157.8h21v13.21h-21zm-17.7 0h13.4v13.21h-13.4z"/><path d="M129.2.4L18.6 64.2v127.7l110.6 63.8 110.5-63.8V64.2zm66.2 155.3a1.9 1.9 0 0 1-2.1 2.1h-10.5V171h10.5a2.3 2.3 0 0 1 2.1 2.1 2.3 2.3 0 0 1-2.1 2.1H65a2.3 2.3 0 0 1-2.1-2.1A2.3 2.3 0 0 1 65 171h10.5v-13.2H65a1.9 1.9 0 0 1-2.1-2.1v-41.3a2 2 0 0 1 2.1-2.1h13.8c1.1-29.8 23.3-46.1 50.4-46.1s49.2 16.3 50.3 46.1h13.8a2 2 0 0 1 2.1 2.1z"/><path d="M165.2 157.8h13.4v13.21h-13.4zm-67.9 0h21v13.21h-21zm-17.6 0h13.4v13.21H79.7zm49.5-87.4c-24.6 0-45.1 14.9-46.2 41.9h92.3c-1.1-27-21.6-41.9-46.1-41.9zm-62.1 83.2h124.1v-37.1H67.1zm61-14.2h51.1a2.1 2.1 0 1 1 0 4.1h-51.1a2.1 2.1 0 1 1 0-4.1z"/></symbol><symbol id="mecha-stilts" viewBox="0 0 256 256"><path d="M124.8 81.3C97.9 83 75.5 102.5 69 127.8h22.4zm2.1 46.5V85.5l-30.2 42.3h30.2zm4.2-46.7v46.7h57.8a62.2 62.2 0 0 0-57.8-46.7zm-60.6 66.6h56.4v23.27H70.5z"/><path d="M129 .4L18.4 64.2v127.7L129 255.7l110.5-63.8V64.2zm90.3 147.3h-27.7v25.4a1.9 1.9 0 0 1-2.1 2.1H68.4a1.9 1.9 0 0 1-2.1-2.1v-25.4H38.6a2.3 2.3 0 0 1-2.1-2.1 2.3 2.3 0 0 1 2.1-2.1h15.7v-13.6a2.1 2.1 0 0 1 2.1-2.1h8.2a66.4 66.4 0 0 1 64.2-50.9c.2-.2.4-.2.8 0 31 .2 56.8 22 63.7 50.9h8.2a2.1 2.1 0 0 1 2.1 2.1v13.6h15.7a2.3 2.3 0 0 1 2.1 2.1 2.2 2.2 0 0 1-2.1 2.1z"/><path d="M131.1 147.7h9.4v23.27h-9.4zM58.5 132h140.9v11.53H58.5zm86.2 15.7h42.8v23.27h-42.8z"/></symbol></svg>