<svg xmlns="http://www.w3.org/2000/svg"><symbol id="space-bubbles" viewBox="0 0 256 256"><path d="M128.1.4l110.5 63.8v127.7l-110.5 63.8-110.5-63.8V64.2L128.1.4z"/><path fill="#fff" d="M65.7 179.8l-4.8-6.9a2 2 0 0 1 .2-2.5l17.4-20.6h-8.6a1.9 1.9 0 0 1-2.1-2.1v-15.1a1.9 1.9 0 0 1 2.1-2H82a61.9 61.9 0 0 1-2.3-16 49.8 49.8 0 0 1 49.7-49.5c27 0 49.5 22.5 49.5 49.5a54.3 54.3 0 0 1-2.3 16h12.1a1.9 1.9 0 0 1 2.1 2v15.1a1.9 1.9 0 0 1-2.1 2.1H178l17.2 20.6a2.1 2.1 0 0 1 0 2.5l-4.8 6.9a2 2 0 0 1-2.7.6l-10.1-5.2H78.5l-10.1 5.2a2.1 2.1 0 0 1-2.7-.6zm31.8-30H83.7l-18.4 21.8 2.9 4.2 35.4-18.6zM72 134.7v10.9h114.6v-10.9zm14.4-4.1h85.8a53.5 53.5 0 0 0 2.5-16 45.4 45.4 0 0 0-45.3-45.3c-24.9 0-45.5 20.4-45.5 45.3 0 5.5.4 11.1 2.5 16zm20.2 29.9l-20 10.5h28.6zm-3.6-10.7l17.6 21.2h15.1l17.6-21.2zm46.7 10.7l-8.6 10.5h28.6zm22.9-10.7h-13.8l-6.3 7.4 35.6 18.6 2.9-4z"/></symbol><symbol id="mecha-stilts" viewBox="0 0 256 256"><path d="M129 .4l110.5 63.8v127.7L129 255.7 18.4 191.9V64.2L129 .4z"/><path fill="#fff" d="M68.4 175.2a1.9 1.9 0 0 1-2.1-2.1v-25.4H38.6a2.3 2.3 0 0 1-2.1-2.1 2.3 2.3 0 0 1 2.1-2.1h15.7v-13.6a2.1 2.1 0 0 1 2.1-2.1h8.2a66.4 66.4 0 0 1 64.2-50.9c.2-.2.4-.2.8 0 31 .2 56.8 22 63.7 50.9h8.2a2.1 2.1 0 0 1 2.1 2.1v13.6h15.7a2.3 2.3 0 0 1 2.1 2.1 2.2 2.2 0 0 1-2.1 2.1h-27.7v25.4a1.9 1.9 0 0 1-2.1 2.1zM58.5 132v11.5h140.9V132zm66.3-50.7C97.9 83 75.5 102.5 69 127.8h22.4zm-54.3 66.4V171h56.4v-23.3zm56.4-62.2l-30.2 42.3h30.2zm4.2-4.4v46.7h57.8a62.2 62.2 0 0 0-57.8-46.7zm0 66.6V171h9.4v-23.3zm13.6 0V171h42.7v-23.3z"/></symbol><symbol id="super-domes" viewBox="0 0 256 256"><path d="M129.2.4l110.5 63.8v127.7l-110.5 63.8-110.6-63.8V64.2L129.2.4z"/><path fill="#fff" d="M65 175.2a2.3 2.3 0 0 1-2.1-2.1A2.3 2.3 0 0 1 65 171h10.5v-13.2H65a1.9 1.9 0 0 1-2.1-2.1v-41.3a2 2 0 0 1 2.1-2.1h13.8c1.1-29.8 23.3-46.1 50.4-46.1s49.2 16.3 50.3 46.1h13.8a2 2 0 0 1 2.1 2.1v41.3a1.9 1.9 0 0 1-2.1 2.1h-10.5V171h10.5a2.3 2.3 0 0 1 2.1 2.1 2.3 2.3 0 0 1-2.1 2.1zm2.1-58.7v37.1h124.1v-37.1zm12.6 41.3V171h13.4v-13.2zm3.3-45.5h92.3c-1.1-27-21.6-41.9-46.1-41.9S84.1 85.3 83 112.3zm14.3 45.5V171h20.9v-13.2zm25.1 0V171h13.5v-13.2zm56.8-14.3h-51.1a2.1 2.1 0 1 1 0-4.1h51.1a2.1 2.1 0 1 1 0 4.1zm-39.1 14.3V171H161v-13.2zm25.1 0V171h13.4v-13.2z"/></symbol></svg>